<svg xmlns="http://www.w3.org/2000/svg" viewBox="0 0 800 1000" width="800" height="1000">
<defs>
<radialGradient id="bg" cx="50%" cy="38%" r="80%">
  <stop offset="0%" stop-color="#FFFFFF"/>
  <stop offset="60%" stop-color="#F2EFE9"/>
  <stop offset="100%" stop-color="#E8E4DA"/>
</radialGradient>
<linearGradient id="sheen" x1="0" y1="0" x2="1" y2="1">
  <stop offset="0%" stop-color="#FFFFFF" stop-opacity="0.10"/>
  <stop offset="45%" stop-color="#FFFFFF" stop-opacity="0"/>
</linearGradient>
<filter id="soft" x="-30%" y="-30%" width="160%" height="160%">
  <feDropShadow dx="0" dy="10" stdDeviation="18" flood-color="#1A1C1C" flood-opacity="0.18"/>
</filter>
<radialGradient id="met" cx="38%" cy="32%" r="80%">
  <stop offset="0%" stop-color="#3B3129"/>
  <stop offset="55%" stop-color="#241D17"/>
  <stop offset="100%" stop-color="#120E0B"/>
</radialGradient>
</defs>
<rect width="800" height="1000" fill="url(#bg)"/>
<rect x="26" y="26" width="748" height="948" fill="none" stroke="#C6A75E" stroke-opacity="0.28" stroke-width="1.5"/><g filter="url(#soft)"><circle cx="340" cy="420" r="80" fill="url(#met)"/>
<circle cx="340" cy="420" r="65.6" fill="none" stroke="#00000040" stroke-width="2.5"/>
<circle cx="317.6" cy="397.6" r="7.199999999999999" fill="#000" opacity="0.55"/>
<circle cx="362.4" cy="397.6" r="7.199999999999999" fill="#000" opacity="0.55"/>
<circle cx="317.6" cy="442.4" r="7.199999999999999" fill="#000" opacity="0.55"/>
<circle cx="362.4" cy="442.4" r="7.199999999999999" fill="#000" opacity="0.55"/><circle cx="462" cy="420" r="80" fill="url(#met)"/>
<circle cx="462" cy="420" r="65.6" fill="none" stroke="#00000040" stroke-width="2.5"/>
<circle cx="439.6" cy="397.6" r="7.199999999999999" fill="#000" opacity="0.55"/>
<circle cx="484.4" cy="397.6" r="7.199999999999999" fill="#000" opacity="0.55"/>
<circle cx="439.6" cy="442.4" r="7.199999999999999" fill="#000" opacity="0.55"/>
<circle cx="484.4" cy="442.4" r="7.199999999999999" fill="#000" opacity="0.55"/><circle cx="300" cy="610" r="48" fill="url(#met)"/>
<circle cx="300" cy="610" r="39.36" fill="none" stroke="#00000040" stroke-width="2.5"/>
<circle cx="286.56" cy="596.56" r="4.32" fill="#000" opacity="0.55"/>
<circle cx="313.44" cy="596.56" r="4.32" fill="#000" opacity="0.55"/>
<circle cx="286.56" cy="623.44" r="4.32" fill="#000" opacity="0.55"/>
<circle cx="313.44" cy="623.44" r="4.32" fill="#000" opacity="0.55"/><circle cx="400" cy="610" r="48" fill="url(#met)"/>
<circle cx="400" cy="610" r="39.36" fill="none" stroke="#00000040" stroke-width="2.5"/>
<circle cx="386.56" cy="596.56" r="4.32" fill="#000" opacity="0.55"/>
<circle cx="413.44" cy="596.56" r="4.32" fill="#000" opacity="0.55"/>
<circle cx="386.56" cy="623.44" r="4.32" fill="#000" opacity="0.55"/>
<circle cx="413.44" cy="623.44" r="4.32" fill="#000" opacity="0.55"/><circle cx="500" cy="610" r="48" fill="url(#met)"/>
<circle cx="500" cy="610" r="39.36" fill="none" stroke="#00000040" stroke-width="2.5"/>
<circle cx="486.56" cy="596.56" r="4.32" fill="#000" opacity="0.55"/>
<circle cx="513.44" cy="596.56" r="4.32" fill="#000" opacity="0.55"/>
<circle cx="486.56" cy="623.44" r="4.32" fill="#000" opacity="0.55"/>
<circle cx="513.44" cy="623.44" r="4.32" fill="#000" opacity="0.55"/></g></svg>